<svg width="23" height="24" viewBox="0 0 23 24" fill="none" xmlns="http://www.w3.org/2000/svg">
<g clip-path="url(#clip0_59_263)">
<path d="M22.9889 12.2244C22.9889 11.2412 22.9107 10.5236 22.7413 9.77954H11.729V14.2175H18.193C18.0627 15.3204 17.359 16.9814 15.7951 18.0975L15.7731 18.246L19.255 20.9962L19.4963 21.0208C21.7117 18.9346 22.9889 15.8652 22.9889 12.2244Z" fill="#4285F4"/>
<path d="M11.729 23.9176C14.8958 23.9176 17.5544 22.8545 19.4963 21.0209L15.7951 18.0976C14.8046 18.8018 13.4753 19.2934 11.729 19.2934C8.62733 19.2934 5.99482 17.2074 5.0564 14.324L4.91885 14.3359L1.29832 17.1927L1.25098 17.3269C3.17974 21.2334 7.14158 23.9176 11.729 23.9176Z" fill="#34A853"/>
<path d="M5.0565 14.324C4.80889 13.58 4.66559 12.7826 4.66559 11.9589C4.66559 11.135 4.80889 10.3378 5.04347 9.59366L5.03691 9.43519L1.37102 6.53247L1.25107 6.59064C0.456137 8.21174 0 10.0322 0 11.9589C0 13.8855 0.456137 15.7059 1.25107 17.327L5.0565 14.324Z" fill="#FBBC05"/>
<path d="M11.729 4.62403C13.9314 4.62403 15.4171 5.59402 16.2642 6.40461L19.5744 3.10928C17.5414 1.1826 14.8958 0 11.729 0C7.14158 0 3.17974 2.68406 1.25098 6.59056L5.04337 9.59359C5.99482 6.7102 8.62733 4.62403 11.729 4.62403Z" fill="#EB4335"/>
</g>
<defs>
<clipPath id="clip0_59_263">
<rect width="23" height="24" fill="white"/>
</clipPath>
</defs>
</svg>
