<svg width="192" height="44" viewBox="0 0 192 44" fill="none" xmlns="http://www.w3.org/2000/svg">
<path d="M80.072 32C80.008 32 79.9653 31.968 79.944 31.904C79.9013 31.84 79.88 31.776 79.88 31.712C79.88 31.4347 79.9973 31.1147 80.232 30.752C80.4667 30.368 80.7547 30.048 81.096 29.792C81.4587 29.5147 81.8 29.376 82.12 29.376H82.856C83.1547 28.992 83.4 28.5547 83.592 28.064C83.8053 27.552 83.9867 26.8267 84.136 25.888L86.088 14.496C86.216 13.6213 86.4827 12.8 86.888 12.032C87.2933 11.264 87.9013 10.4853 88.712 9.696C90.1413 8.26667 91.72 7.552 93.448 7.552C93.8747 7.552 94.3013 7.59466 94.728 7.68C95.176 7.744 95.5387 7.85067 95.816 8C96.072 8.14933 96.2 8.27733 96.2 8.384C96.2 8.576 95.9547 8.78933 95.464 9.024C94.9733 9.25867 94.5787 9.376 94.28 9.376C94.1947 9.376 93.96 9.32267 93.576 9.216C93.192 9.10933 92.7973 9.056 92.392 9.056C91.6453 9.056 90.9413 9.312 90.28 9.824C89.8533 10.1653 89.5013 10.6667 89.224 11.328C88.968 11.9893 88.744 12.832 88.552 13.856L86.184 27.232C86.0987 27.68 85.96 28.1173 85.768 28.544C85.576 28.9493 85.352 29.2693 85.096 29.504V29.536C85.5013 29.6213 86.2373 29.7067 87.304 29.792C88.3707 29.856 89.2027 29.888 89.8 29.888C91.656 29.888 93.3413 29.44 94.856 28.544C95.048 28.416 95.1867 28.352 95.272 28.352C95.4213 28.352 95.496 28.4693 95.496 28.704C95.496 29.1093 95.1973 29.5787 94.6 30.112C94.024 30.624 93.2347 31.072 92.232 31.456C91.2507 31.8187 90.2053 32 89.096 32C88.5627 32 87.5707 31.9147 86.12 31.744C85.9067 31.7227 85.4267 31.6693 84.68 31.584C83.9333 31.4987 83.2613 31.456 82.664 31.456C82.0453 31.456 81.576 31.4987 81.256 31.584C80.9573 31.648 80.712 31.7333 80.52 31.84C80.3067 31.9467 80.1573 32 80.072 32ZM97.7473 32.32C96.6593 32.32 96.1153 31.2853 96.1153 29.216C96.1153 27.232 96.5419 25.28 97.3953 23.36C98.2699 21.4187 99.4433 19.84 100.915 18.624C102.387 17.3867 103.977 16.768 105.683 16.768C106.558 16.768 107.315 16.9067 107.955 17.184C107.678 18.272 107.486 19.072 107.379 19.584L106.707 23.04C106.11 25.7707 105.747 27.6587 105.619 28.704C105.598 28.8533 105.587 29.0347 105.587 29.248C105.587 29.7173 105.726 29.952 106.003 29.952C106.345 29.952 106.665 29.7387 106.963 29.312C107.262 28.864 107.603 28.2347 107.987 27.424C108.009 27.4027 108.041 27.3387 108.083 27.232C108.147 27.1253 108.222 27.072 108.307 27.072C108.435 27.072 108.499 27.2 108.499 27.456L108.435 27.968C108.286 28.672 107.977 29.3653 107.507 30.048C107.059 30.7307 106.547 31.2853 105.971 31.712C105.417 32.1173 104.915 32.32 104.467 32.32C103.721 32.32 103.347 31.712 103.347 30.496C103.347 30.0267 103.401 29.5467 103.507 29.056L104.051 26.272H104.019C102.995 28.064 101.897 29.5253 100.723 30.656C99.5713 31.7653 98.5793 32.32 97.7473 32.32ZM99.2513 29.696C99.8486 29.696 100.531 29.2373 101.299 28.32C102.089 27.3813 102.814 26.24 103.475 24.896C104.158 23.552 104.627 22.3467 104.883 21.28L105.395 19.232C104.755 18.8053 104.083 18.592 103.379 18.592C102.462 18.592 101.619 19.1253 100.851 20.192C100.105 21.2373 99.5179 22.5173 99.0913 24.032C98.6646 25.5253 98.4513 26.88 98.4513 28.096C98.4513 28.6293 98.5046 29.0347 98.6113 29.312C98.7393 29.568 98.9526 29.696 99.2513 29.696ZM124.155 32.32C122.299 32.32 120.869 31.648 119.867 30.304C118.864 28.9387 118.363 26.912 118.363 24.224C118.363 21.1947 118.949 18.5707 120.123 16.352C121.317 14.112 122.8 12.4053 124.571 11.232C126.363 10.0587 128.112 9.472 129.819 9.472C130.928 9.472 131.899 9.696 132.731 10.144C133.584 10.5707 134.011 11.2213 134.011 12.096C134.011 12.7147 133.765 13.3973 133.275 14.144C133.147 14.3147 133.04 14.4427 132.955 14.528C132.869 14.592 132.763 14.624 132.635 14.624C132.485 14.624 132.379 14.56 132.315 14.432C132.251 14.2827 132.208 14.112 132.187 13.92C132.165 13.728 132.144 13.5893 132.123 13.504C131.995 12.7787 131.653 12.2133 131.099 11.808C130.565 11.3813 129.808 11.168 128.827 11.168C127.099 11.168 125.648 11.8293 124.475 13.152C123.323 14.4533 122.459 16.064 121.883 17.984C121.328 19.904 121.051 21.7707 121.051 23.584C121.051 25.6533 121.435 27.2533 122.203 28.384C122.971 29.5147 124.059 30.08 125.467 30.08C126.619 30.08 127.696 29.7067 128.699 28.96C129.723 28.2133 130.576 27.1467 131.259 25.76C131.387 25.5253 131.515 25.408 131.643 25.408C131.749 25.408 131.803 25.5253 131.803 25.76C131.803 25.888 131.792 26.016 131.771 26.144C131.749 26.272 131.728 26.368 131.707 26.432C131.387 27.5627 130.853 28.576 130.107 29.472C129.36 30.368 128.464 31.072 127.419 31.584C126.373 32.0747 125.285 32.32 124.155 32.32ZM135.683 32.32C134.787 32.32 134.104 31.9787 133.635 31.296C133.187 30.592 132.963 29.6213 132.963 28.384C132.963 26.656 133.379 24.8853 134.211 23.072C135.043 21.2587 136.067 19.7547 137.283 18.56C138.52 17.3653 139.693 16.768 140.803 16.768C141.635 16.768 142.275 17.1413 142.723 17.888C143.171 18.6133 143.395 19.5733 143.395 20.768C143.395 22.368 143 24.0747 142.211 25.888C141.443 27.7013 140.461 29.2267 139.267 30.464C138.072 31.7013 136.877 32.32 135.683 32.32ZM137.251 30.208C137.955 30.208 138.595 29.856 139.171 29.152C139.747 28.4267 140.205 27.4773 140.547 26.304C140.888 25.1093 141.059 23.8507 141.059 22.528C141.059 20.096 140.429 18.88 139.171 18.88C138.381 18.88 137.688 19.3067 137.091 20.16C136.515 21.0133 136.067 22.0587 135.747 23.296C135.448 24.512 135.299 25.6533 135.299 26.72C135.299 27.744 135.448 28.5867 135.747 29.248C136.067 29.888 136.568 30.208 137.251 30.208ZM146.403 32.32C145.485 32.32 144.803 31.9147 144.355 31.104C143.907 30.272 143.683 29.2907 143.683 28.16C143.683 26.5387 144.067 24.832 144.835 23.04C145.624 21.248 146.637 19.7547 147.875 18.56C149.112 17.3653 150.392 16.768 151.715 16.768C152.291 16.768 152.739 16.8853 153.059 17.12C153.4 17.3333 153.571 17.6213 153.571 17.984C153.571 18.3253 153.443 18.72 153.187 19.168C153.037 19.424 152.899 19.552 152.771 19.552C152.685 19.552 152.611 19.4987 152.547 19.392C152.077 18.7733 151.491 18.464 150.787 18.464C149.933 18.464 149.133 18.8267 148.387 19.552C147.661 20.256 147.085 21.2053 146.659 22.4C146.232 23.5947 146.019 24.8853 146.019 26.272C146.019 28.6613 146.68 29.856 148.003 29.856C148.685 29.856 149.272 29.6 149.763 29.088C150.253 28.576 150.712 27.9467 151.139 27.2C151.181 27.136 151.235 27.0507 151.299 26.944C151.363 26.8373 151.416 26.7627 151.459 26.72C151.523 26.6773 151.597 26.656 151.683 26.656C151.747 26.656 151.8 26.6987 151.843 26.784C151.885 26.848 151.907 26.9333 151.907 27.04C151.907 27.6587 151.619 28.3947 151.043 29.248C150.467 30.08 149.741 30.8053 148.867 31.424C148.013 32.0213 147.192 32.32 146.403 32.32ZM157.788 14.944C157.575 14.944 157.479 14.8373 157.5 14.624L157.884 12.384C157.991 11.7653 158.215 11.296 158.556 10.976C158.919 10.6347 159.367 10.464 159.9 10.464H160.028C160.156 10.464 160.231 10.4853 160.252 10.528C160.295 10.5707 160.306 10.656 160.284 10.784L159.932 12.992C159.847 13.5893 159.623 14.0693 159.26 14.432C158.898 14.7733 158.45 14.944 157.916 14.944H157.788ZM155.9 32.32C155.218 32.32 154.876 31.8293 154.876 30.848C154.876 30.3573 154.94 29.792 155.068 29.152L156.604 20.608C156.69 20.0533 156.732 19.712 156.732 19.584C156.732 19.264 156.636 19.104 156.444 19.104C156.188 19.104 155.879 19.3067 155.516 19.712C155.154 20.1173 154.759 20.7573 154.332 21.632C154.247 21.888 154.14 22.016 154.012 22.016C153.884 22.016 153.82 21.9093 153.82 21.696C153.82 21.184 154.044 20.5333 154.492 19.744C154.962 18.9333 155.527 18.24 156.188 17.664C156.871 17.0667 157.5 16.768 158.076 16.768C158.738 16.768 159.068 17.2373 159.068 18.176C159.068 18.624 159.004 19.2107 158.876 19.936L157.212 29.184L157.148 29.6C157.148 29.8347 157.244 29.952 157.436 29.952C157.692 29.952 158.002 29.7493 158.364 29.344C158.727 28.9173 159.122 28.2773 159.548 27.424C159.655 27.1893 159.762 27.072 159.868 27.072C159.996 27.072 160.06 27.2107 160.06 27.488C160.06 27.9787 159.826 28.6187 159.356 29.408C158.908 30.176 158.354 30.8587 157.692 31.456C157.031 32.032 156.434 32.32 155.9 32.32ZM162.027 32.32C161.835 32.32 161.739 32.256 161.739 32.128C161.739 32.0427 161.782 31.8613 161.867 31.584C161.974 31.2853 162.112 30.784 162.283 30.08C162.71 28.3093 163.222 25.3547 163.819 21.216C163.947 20.4053 164.011 19.84 164.011 19.52C164.011 19.2427 163.947 19.104 163.819 19.104C163.456 19.104 162.912 19.744 162.187 21.024C162.08 21.216 161.984 21.3867 161.899 21.536C161.814 21.664 161.739 21.76 161.675 21.824C161.632 21.888 161.579 21.92 161.515 21.92C161.344 21.92 161.259 21.8133 161.259 21.6C161.259 21.1733 161.494 20.5653 161.963 19.776C162.432 18.9867 162.987 18.2933 163.627 17.696C164.267 17.0773 164.843 16.768 165.355 16.768C165.696 16.768 165.942 16.9173 166.091 17.216C166.24 17.5147 166.315 17.888 166.315 18.336C166.315 19.04 166.144 20.416 165.803 22.464H165.835C166.816 20.736 167.894 19.36 169.067 18.336C170.24 17.2907 171.254 16.768 172.107 16.768C173.003 16.768 173.451 17.3973 173.451 18.656C173.451 19.1253 173.355 19.9147 173.163 21.024L172.427 24.864C171.894 27.5733 171.627 29.1093 171.627 29.472C171.627 29.6213 171.659 29.76 171.723 29.888C171.808 29.9947 171.936 30.048 172.107 30.048C172.683 30.048 173.344 29.1733 174.091 27.424C174.155 27.1893 174.262 27.072 174.411 27.072C174.539 27.072 174.603 27.2 174.603 27.456C174.603 27.648 174.592 27.8187 174.571 27.968C174.422 28.736 174.112 29.4613 173.643 30.144C173.174 30.8053 172.651 31.3387 172.075 31.744C171.499 32.128 170.976 32.32 170.507 32.32C170.059 32.32 169.75 32.1387 169.579 31.776C169.43 31.392 169.355 30.976 169.355 30.528C169.355 29.568 169.622 27.84 170.155 25.344C170.667 22.912 170.944 21.2267 170.987 20.288C171.008 19.904 170.976 19.6373 170.891 19.488C170.827 19.3173 170.656 19.232 170.379 19.232C169.718 19.232 169.003 19.6693 168.235 20.544C167.488 21.4187 166.816 22.496 166.219 23.776C165.622 25.0347 165.227 26.1867 165.035 27.232L164.523 30.016C164.395 30.5707 164.054 31.0933 163.499 31.584C162.944 32.0747 162.454 32.32 162.027 32.32ZM177.162 32.32C176.074 32.32 175.53 31.2853 175.53 29.216C175.53 27.232 175.957 25.28 176.81 23.36C177.685 21.4187 178.858 19.84 180.33 18.624C181.802 17.3867 183.392 16.768 185.098 16.768C185.973 16.768 186.73 16.9067 187.37 17.184C187.093 18.272 186.901 19.072 186.794 19.584L186.122 23.04C185.525 25.7707 185.162 27.6587 185.034 28.704C185.013 28.8533 185.002 29.0347 185.002 29.248C185.002 29.7173 185.141 29.952 185.418 29.952C185.76 29.952 186.08 29.7387 186.378 29.312C186.677 28.864 187.018 28.2347 187.402 27.424C187.424 27.4027 187.456 27.3387 187.498 27.232C187.562 27.1253 187.637 27.072 187.722 27.072C187.85 27.072 187.914 27.2 187.914 27.456L187.85 27.968C187.701 28.672 187.392 29.3653 186.922 30.048C186.474 30.7307 185.962 31.2853 185.386 31.712C184.832 32.1173 184.33 32.32 183.882 32.32C183.136 32.32 182.762 31.712 182.762 30.496C182.762 30.0267 182.816 29.5467 182.922 29.056L183.466 26.272H183.434C182.41 28.064 181.312 29.5253 180.138 30.656C178.986 31.7653 177.994 32.32 177.162 32.32ZM178.666 29.696C179.264 29.696 179.946 29.2373 180.714 28.32C181.504 27.3813 182.229 26.24 182.89 24.896C183.573 23.552 184.042 22.3467 184.298 21.28L184.81 19.232C184.17 18.8053 183.498 18.592 182.794 18.592C181.877 18.592 181.034 19.1253 180.266 20.192C179.52 21.2373 178.933 22.5173 178.506 24.032C178.08 25.5253 177.866 26.88 177.866 28.096C177.866 28.6293 177.92 29.0347 178.026 29.312C178.154 29.568 178.368 29.696 178.666 29.696Z" fill="white"/>
<path d="M62 2C62 21.4879 62 36.7866 62 42" stroke="#FBCD08" stroke-width="2.5" stroke-linecap="round"/>
<path d="M68 2C68 21.4879 68 36.7866 68 42" stroke="#FBCD08" stroke-width="2.5" stroke-linecap="round"/>
<path d="M0 4.66667H23.4M26 26H49.4M2.6 42V23.3333M28.6 20.6667V2M0 11.3333H23.4M26 32.6667H49.4M11.7 42V23.3333M37.7 20.6667V2M0 18H23.4M26 39.3333H49.4M20.8 42V23.3333M46.8 20.6667V2" stroke="#DA0A0A" stroke-width="3.9"/>
</svg>
